# xmcd
#
# Track frame offsets: 
#        150
#        16239
#        27136
#        46392
#        53898
#        63796
#        109042
#        132562
#
# Disc length: 2037 seconds
#
# Revision: 0
# Processed by: cddbd v1.5.2PL0 Copyright (c) Steve Scherf et al.
# Submitted via: ExactAudioCopyFreeDBPlugin 1.0
#
DISCID=6307f308
DTITLE=Hank Williams III - Take as Needed for Pain
DYEAR=2015
DGENRE=Psychobilly
TTITLE0=Get Outta My Life (feat. Rebel Meets Rebel and David Allan Coe
TTITLE0=)
TTITLE1=Ruby, Get Back to the Hills
TTITLE2=Torn Between Suicide and Breakfast
TTITLE3=No Values
TTITLE4=Gotta Buy Paw a Truck
TTITLE5=Take as Needed for Pain
TTITLE6=White Trash
TTITLE7=King Cartel
EXTD=
EXTT0=
EXTT1=
EXTT2=
EXTT3=
EXTT4=
EXTT5=
EXTT6=
EXTT7=
PLAYORDER=
